<?xml version="1.0" encoding="UTF-8"?>
<svg width="35px" height="34px" viewBox="0 0 35 34" version="1.1" xmlns="http://www.w3.org/2000/svg" xmlns:xlink="http://www.w3.org/1999/xlink">
    <!-- Generator: Sketch 48.2 (47327) - http://www.bohemiancoding.com/sketch -->
    <title>iconsEU2/PersonalLoans</title>
    <desc>Created with Sketch.</desc>
    <defs></defs>
    <g id="Symbols" stroke="none" stroke-width="1" fill="none" fill-rule="evenodd">
        <g id="iconsEU2/PersonalLoans" fill="#56924B">
            <path d="M20.2440884,11.717826 C20.0100121,12.0051014 19.7407425,12.2293563 19.4428272,12.3832247 C18.8437229,12.6925982 18.1603183,12.6917798 17.5661246,12.3832247 C17.2682094,12.2293563 16.9989398,12.0059199 16.764045,11.717826 C16.6363671,11.5615023 16.525058,11.3888096 16.4268442,11.2054772 L19.0606118,11.2054772 C19.3855358,11.2054772 19.6490763,10.9411183 19.6490763,10.6153757 C19.6490763,10.2904516 19.3855358,10.0269112 19.0606118,10.0269112 L16.0372627,10.0269112 C16.0053432,9.82066216 15.9873373,9.61032087 15.9873373,9.39670579 C15.9873373,9.1912752 16.0053432,8.98993684 16.0356258,8.79187229 L19.4485564,8.79187229 C19.7742989,8.79187229 20.0386578,8.52833184 20.0386578,8.20258931 C20.0386578,7.87766522 19.7742989,7.61248788 19.4485564,7.61248788 L16.4153859,7.61248788 C16.5168736,7.42097091 16.6306379,7.23845688 16.764045,7.07476716 C16.9981213,6.78831015 17.2682094,6.56405524 17.5669431,6.41018691 C18.1627737,6.0999949 18.8453598,6.0999949 19.4428272,6.41018691 C19.7407425,6.56405524 20.0108306,6.78831015 20.2440884,7.07476716 C20.4503375,7.32603087 20.8202762,7.36531641 21.0739953,7.15988581 C21.325259,6.95363677 21.3629076,6.58287956 21.157477,6.32997895 C20.8210947,5.91748086 20.4266024,5.59255677 19.9854587,5.36339117 C19.0491535,4.87886961 17.9581615,4.87886961 17.0234932,5.36339117 C16.5823494,5.59255677 16.1878572,5.91748086 15.8506564,6.3307974 C15.5453751,6.70564685 15.3088435,7.1394246 15.132877,7.61248788 L13.9788645,7.61248788 C13.653122,7.61248788 13.3895815,7.87766522 13.3895815,8.20258931 C13.3895815,8.52833184 13.653122,8.79187229 13.9788645,8.79187229 L14.8570598,8.79187229 C14.8341433,8.99239219 14.8079529,9.19209364 14.8079529,9.39670579 C14.8079529,9.61032087 14.8341433,9.81820681 14.8595152,10.0269112 L13.5901014,10.0269112 C13.2651773,10.0269112 13,10.2904516 13,10.6153757 C13,10.9411183 13.2651773,11.2054772 13.5901014,11.2054772 L15.1443353,11.2054772 C15.3186648,11.6687191 15.5511042,12.0951308 15.8506564,12.4626142 C16.1878572,12.8759307 16.5823494,13.2016733 17.0226748,13.4300204 C17.4900089,13.6730996 17.9884441,13.7958669 18.5040667,13.7958669 C19.0188709,13.7958669 19.5164876,13.6730996 19.9854587,13.4300204 C20.4274209,13.2008548 20.8210947,12.8751123 21.157477,12.4626142 C21.3629076,12.2113505 21.325259,11.8389564 21.0739953,11.6335258 C20.8219131,11.4280952 20.4503375,11.4657438 20.2440884,11.717826" id="Fill-1"></path>
            <path d="M17.7061,28.6399 C15.2881,28.6399 13.1801,27.7029 10.7801,26.4739 C10.4261,26.2929 10.2861,25.8589 10.4671,25.5049 C10.6481,25.1509 11.0831,25.0119 11.4361,25.1919 C15.6431,27.3449 18.0451,27.9519 22.0291,26.1299 C22.3161,26.0179 22.7221,25.8079 22.6691,25.4649 C22.6381,25.2629 22.4621,25.0829 22.2861,25.0739 C21.3211,25.0159 20.5421,25.0009 19.8771,24.9889 C17.1841,24.9379 10.3811,21.7319 10.3811,21.7319 C10.0691,21.4999 8.3001,21.8379 7.0971,22.3269 L3.1671,24.2469 C2.7981,24.3979 2.3791,24.2189 2.2291,23.8519 C2.0791,23.4839 2.2571,23.0639 2.6251,22.9129 L6.5551,20.9929 C8.0171,20.3989 10.3571,19.9219 11.2381,20.5749 C11.2381,20.5749 17.3501,23.5009 19.9031,23.5489 C20.5851,23.5619 21.3841,23.5769 22.3711,23.6359 C23.2301,23.6869 23.9551,24.3629 24.0921,25.2439 C24.2081,25.9899 23.8731,26.9619 22.5871,27.4559 C20.7571,28.2939 19.1751,28.6399 17.7061,28.6399" id="Fill-3"></path>
            <path d="M17.6631,1.4406 C13.2861,1.4406 9.7251,5.0026 9.7251,9.3796 C9.7251,13.7576 13.2861,17.3196 17.6631,17.3196 C22.0421,17.3196 25.6031,13.7576 25.6031,9.3796 C25.6031,5.0026 22.0421,1.4406 17.6631,1.4406 M17.6631,18.7596 C12.4911,18.7596 8.2841,14.5516 8.2841,9.3796 C8.2841,4.2086 12.4911,0.0006 17.6631,0.0006 C22.8361,0.0006 27.0441,4.2086 27.0441,9.3796 C27.0441,14.5516 22.8361,18.7596 17.6631,18.7596" id="Fill-5"></path>
            <path d="M0.75,33.5109 C0.336,33.5109 0,33.1749 0,32.7609 L0,22.3439 C0,21.9299 0.336,21.5939 0.75,21.5939 C1.164,21.5939 1.5,21.9299 1.5,22.3439 L1.5,32.7609 C1.5,33.1749 1.164,33.5109 0.75,33.5109" id="Fill-7"></path>
            <path d="M30.6857,21.7853 C30.5347,21.8663 29.8427,22.1923 29.5967,22.3203 L25.6707,24.1423 C25.2947,24.3173 25.1317,24.7643 25.3057,25.1393 C25.4327,25.4123 25.7037,25.5733 25.9867,25.5733 C26.0927,25.5733 26.1997,25.5513 26.3017,25.5043 L30.2277,23.6823 C31.3747,23.0113 32.2297,22.6703 32.7737,22.9463 C33.0487,23.0873 33.1477,23.3503 33.1477,23.5483 C33.1467,23.6803 33.1067,23.9203 32.7797,24.0893 L21.0957,31.4703 C18.8417,32.8933 15.8747,32.8803 15.2277,32.4933 C15.1677,32.4583 15.1047,32.4313 15.0377,32.4143 C13.5897,32.0403 12.4307,31.6713 11.4067,31.3463 C8.7277,30.4923 6.9577,29.9293 3.5507,30.3653 C3.1567,30.4163 2.8777,30.7763 2.9287,31.1713 C2.9797,31.5653 3.3447,31.8423 3.7347,31.7943 C6.8217,31.3963 8.3837,31.8943 10.9707,32.7183 C11.9907,33.0433 13.1457,33.4103 14.5927,33.7863 C15.0497,34.0173 15.7877,34.1503 16.6657,34.1503 C18.2187,34.1503 20.2107,33.7313 21.8647,32.6873 L33.4897,25.3403 C34.1757,24.9923 34.5857,24.3223 34.5867,23.5503 C34.5877,22.7513 34.1437,22.0283 33.4277,21.6633 C32.9497,21.4203 32.0337,21.1843 30.6857,21.7853 Z" id="Fill-9"></path>
        </g>
    </g>
</svg>