<svg width="32" height="32" viewBox="0 0 32 32" fill="none" xmlns="http://www.w3.org/2000/svg">
<g clip-path="url(#clip0)">
<path d="M6.71016 24.84L8.91016 23.72C9.74016 23.38 10.9702 23.14 11.1802 23.3C11.1802 23.3 15.8902 25.55 17.7502 25.58C18.2102 25.59 18.7502 25.6 19.4202 25.64C19.5402 25.65 19.6602 25.77 19.6802 25.91C19.7202 26.15 19.4402 26.3 19.2402 26.38C16.4802 27.66 14.8202 27.23 11.9102 25.72C11.6702 25.59 11.3702 25.69 11.2402 25.94C11.1102 26.19 11.2102 26.49 11.4602 26.62C13.1202 27.48 14.5802 28.14 16.2502 28.14C17.2702 28.14 18.3602 27.9 19.6302 27.31C20.5202 26.96 20.7502 26.28 20.6702 25.76C20.5802 25.14 20.0702 24.67 19.4802 24.63C18.8002 24.59 18.2402 24.58 17.7702 24.57C16.0002 24.54 11.7802 22.49 11.7802 22.49C11.1702 22.03 9.55016 22.37 8.54016 22.78L6.34016 23.9C6.09016 24.01 5.96016 24.3 6.07016 24.56C6.17016 24.82 6.45016 24.94 6.71016 24.84Z" fill="#56924B"/>
<path d="M4.52 23.2C4.23 23.2 4 23.4399 4 23.7299V30.62C4 30.91 4.23 31.15 4.52 31.15C4.81 31.15 5.04 30.91 5.04 30.62V23.7299C5.04 23.4399 4.81 23.2 4.52 23.2Z" fill="#56924B"/>
<path d="M27.12 23.2499C26.79 23.0799 26.16 22.9099 25.22 23.3399C25.07 23.4199 24.8 23.5399 24.56 23.6899C24.53 23.6999 24.5 23.6999 24.46 23.7099L21.74 24.9899C21.48 25.1099 21.37 25.4199 21.49 25.6899C21.58 25.8799 21.77 25.9899 21.96 25.9899C22.03 25.9899 22.11 25.9699 22.18 25.9399L24.9 24.6599L24.91 24.6499L24.93 24.6399C25.67 24.1299 26.29 23.9499 26.66 24.1399C26.85 24.2399 26.92 24.4199 26.92 24.5599C26.92 24.6499 26.89 24.8199 26.67 24.9399L18.59 30.1099C17.03 31.1099 14.98 31.0999 14.53 30.8299C14.49 30.8099 14.45 30.7899 14.4 30.7699C13.4 30.5099 12.6 30.2499 11.89 30.0199C10.04 29.4199 8.81001 29.0299 6.46001 29.3299C6.19001 29.3699 5.99001 29.6199 6.03001 29.8899C6.07001 30.1699 6.32001 30.3599 6.59001 30.3299C8.73001 30.0499 9.81001 30.3999 11.59 30.9799C12.3 31.2099 13.09 31.4699 14.1 31.7299C14.42 31.8899 14.93 31.9899 15.53 31.9899C16.6 31.9899 17.98 31.6999 19.13 30.9599L27.17 25.8099C27.64 25.5699 27.93 25.0999 27.93 24.5599C27.92 24.0099 27.62 23.5099 27.12 23.2499Z" fill="#56924B"/>
<path d="M27.92 5.17C27.92 4.13 27.06 3.27 26.02 3.27H23.98L23.1 1.24C23.1 1.23 23.09 1.22 23.08 1.21C22.81 0.53 22.17 0.07 21.45 0C21.42 0 21.38 0 21.35 0H12.09C11.79 0 11.54 0.24 11.54 0.54C11.54 0.84 11.78 1.09 12.08 1.09C12.38 1.09 12.0922 1.09 12.1 1.09C14.9352 1.09 21.36 1.09 21.36 1.09C21.62 1.12 22.01 1.42 22.09 1.63C22.09 1.64 22.1 1.65 22.1 1.66L24 6.03C23.85 6 23.71 5.98 23.56 5.98H8.36C8.21 5.98 8.07 6 7.93 6.02L9.83 1.65C9.83 1.64 9.84 1.63 9.84 1.62C9.92 1.39 10.36 1.08 10.62 1.08H12.38C12.68 1.08 12.93 0.84 12.93 0.54C12.94 0.25 12.7 0.01 12.4 0H12.39H10.63C9.84 0 9.13 0.48 8.85 1.21C8.85 1.22 8.84 1.23 8.83 1.24L7.94 3.26H5.9C4.86 3.26 4 4.12 4 5.17C4 6.22 4.86 7.07 5.9 7.07H5.93C5.4 7.65 5.08 8.42 5.08 9.27V14.68C5.08 14.98 5.32 15.22 5.62 15.22H7.1V16.73C7.1 17.97 8.11 18.97 9.34 18.97C10.57 18.97 11.58 17.96 11.58 16.73V15.22H20.37V16.73C20.37 17.97 21.38 18.97 22.61 18.97C23.85 18.97 24.85 17.96 24.85 16.73V15.22H26.27C26.57 15.22 26.81 14.98 26.81 14.68V9.27C26.81 8.42 26.49 7.65 25.96 7.07H25.99C27.06 7.07 27.92 6.21 27.92 5.17ZM5.9 5.98C5.44 5.98 5.08 5.63 5.08 5.16C5.08 4.7 5.43 4.34 5.9 4.34H7.46L6.75 5.98H5.9ZM10.53 16.78C10.53 17.43 10 17.95 9.36 17.95C8.71 17.95 8.19 17.42 8.19 16.78V16.77V15.23H10.54V16.78H10.53ZM23.8 16.78C23.8 17.43 23.27 17.95 22.63 17.95C21.98 17.95 21.46 17.42 21.46 16.78V16.77V15.23H23.81V16.78H23.8ZM25.75 14.14H6.17V9.27C6.17 8.04 7.14 7.07 8.35 7.07H23.56C24.77 7.07 25.74 8.04 25.74 9.27V14.14H25.75ZM25.17 5.98L24.46 4.35H26.02C26.48 4.35 26.84 4.7 26.84 5.17C26.84 5.63 26.49 5.99 26.02 5.99H25.17V5.98Z" fill="#56924B"/>
<path d="M9.86984 8.79004C8.66984 8.50004 7.47984 9.25004 7.19984 10.44C6.91984 11.63 7.65984 12.83 8.84984 13.11C9.01984 13.15 9.18984 13.17 9.35984 13.17C9.76984 13.17 10.1698 13.06 10.5198 12.84C11.0198 12.53 11.3798 12.04 11.5098 11.46C11.6498 10.88 11.5498 10.29 11.2398 9.78004C10.9298 9.28004 10.4398 8.93004 9.86984 8.79004ZM10.5198 11.23C10.4498 11.54 10.2598 11.81 9.97984 11.97C9.70984 12.14 9.38984 12.19 9.07984 12.12C8.43984 11.97 8.03984 11.32 8.18984 10.68C8.25984 10.37 8.44984 10.1 8.72984 9.94004C8.91984 9.82004 9.13984 9.76004 9.35984 9.76004C9.44984 9.76004 9.54984 9.77004 9.63984 9.79004C9.94984 9.86004 10.2098 10.05 10.3798 10.32C10.5398 10.6 10.5898 10.92 10.5198 11.23Z" fill="#56924B"/>
<path d="M23.1402 8.79004C22.5602 8.65004 21.9702 8.75004 21.4602 9.06004C20.9602 9.37004 20.6002 9.86004 20.4702 10.44C20.3302 11.02 20.4302 11.61 20.7402 12.12C21.0502 12.62 21.5402 12.98 22.1202 13.11C22.2902 13.15 22.4602 13.17 22.6302 13.17C23.6402 13.17 24.5502 12.48 24.7902 11.46C24.9302 10.88 24.8302 10.29 24.5202 9.78004C24.2002 9.28004 23.7102 8.93004 23.1402 8.79004ZM23.7902 11.23C23.6402 11.87 22.9902 12.27 22.3502 12.12C22.0402 12.05 21.7702 11.86 21.6102 11.58C21.4402 11.31 21.3902 10.99 21.4602 10.68C21.5302 10.37 21.7202 10.11 21.9902 9.94004C22.1802 9.82004 22.4002 9.76004 22.6202 9.76004C22.7102 9.76004 22.8102 9.77004 22.9002 9.79004C23.2102 9.86004 23.4702 10.05 23.6402 10.32C23.8102 10.6 23.8602 10.92 23.7902 11.23Z" fill="#56924B"/>
</g>
<defs>
<clipPath id="clip0">
<rect width="23.92" height="32" fill="white" transform="translate(4)"/>
</clipPath>
</defs>
</svg>
