<?xml version="1.0" encoding="UTF-8"?>
<svg xmlns="http://www.w3.org/2000/svg" xmlns:xlink="http://www.w3.org/1999/xlink" width="35px" height="31px" version="1.1" viewBox="0 0 35 31">
<!--Generator: Sketch 48.2 (47327) - http://www.bohemiancoding.com/sketch-->
    <title>
        iconsEU2/CurrentAccounts
    </title>
    <desc>
        Created with Sketch.
    </desc>
    <defs/>
    <g id="Symbols" fill="none" fill-rule="evenodd" stroke="none" stroke-width="1">
        <g id="iconsEU2/CurrentAccounts" fill="#56924B">
            <path id="Fill-1" d="M1.44,17.4214 L33.404,17.4214 L33.404,1.4414 L1.44,1.4414 L1.44,17.4214 Z M34.124,18.8614 L0.72,18.8614 C0.323,18.8614 0,18.5384 0,18.1414 L0,0.7204 C0,0.3224 0.323,0.0004 0.72,0.0004 L34.124,0.0004 C34.522,0.0004 34.844,0.3224 34.844,0.7204 L34.844,18.1414 C34.844,18.5384 34.522,18.8614 34.124,18.8614 Z"/>
            <path id="Fill-3" d="M6.804,18.0938 C6.407,18.0938 6.084,17.7708 6.084,17.3738 C6.084,14.8798 4.055,12.8508 1.561,12.8508 C1.163,12.8508 0.841,12.5278 0.841,12.1308 C0.841,11.7328 1.163,11.4098 1.561,11.4098 C4.849,11.4098 7.524,14.0858 7.524,17.3738 C7.524,17.7708 7.201,18.0938 6.804,18.0938"/>
            <path id="Fill-4" d="M28.0403,18.0938 C27.6433,18.0938 27.3203,17.7708 27.3203,17.3738 C27.3203,14.0858 29.9953,11.4098 33.2833,11.4098 C33.6813,11.4098 34.0033,11.7328 34.0033,12.1308 C34.0033,12.5278 33.6813,12.8508 33.2833,12.8508 C30.7893,12.8508 28.7603,14.8798 28.7603,17.3738 C28.7603,17.7708 28.4373,18.0938 28.0403,18.0938"/>
            <path id="Fill-5" d="M1.5608,7.4512 C1.1638,7.4512 0.8408,7.1282 0.8408,6.7312 C0.8408,6.3332 1.1638,6.0112 1.5608,6.0112 C4.0548,6.0112 6.0838,3.9822 6.0838,1.4882 C6.0838,1.0902 6.4068,0.7672 6.8038,0.7672 C7.2018,0.7672 7.5238,1.0902 7.5238,1.4882 C7.5238,4.7762 4.8488,7.4512 1.5608,7.4512"/>
            <path id="Fill-6" d="M33.2834,7.4512 C29.9954,7.4512 27.3204,4.7762 27.3204,1.4882 C27.3204,1.0902 27.6424,0.7672 28.0404,0.7672 C28.4374,0.7672 28.7604,1.0902 28.7604,1.4882 C28.7604,3.9822 30.7894,6.0112 33.2834,6.0112 C33.6804,6.0112 34.0034,6.3332 34.0034,6.7312 C34.0034,7.1282 33.6804,7.4512 33.2834,7.4512"/>
            <path id="Fill-7" d="M7.907,9.0513 C7.698,9.0513 7.528,9.2213 7.528,9.4303 C7.528,9.6393 7.698,9.8093 7.907,9.8093 C8.116,9.8093 8.286,9.6393 8.286,9.4303 C8.286,9.2213 8.116,9.0513 7.907,9.0513 M7.907,11.2503 C6.904,11.2503 6.087,10.4333 6.087,9.4303 C6.087,8.4273 6.904,7.6113 7.907,7.6113 C8.91,7.6113 9.726,8.4273 9.726,9.4303 C9.726,10.4333 8.91,11.2503 7.907,11.2503"/>
            <path id="Fill-8" d="M26.9211,9.0513 C26.7121,9.0513 26.5421,9.2213 26.5421,9.4303 C26.5421,9.6393 26.7121,9.8093 26.9211,9.8093 C27.1301,9.8093 27.3001,9.6393 27.3001,9.4303 C27.3001,9.2213 27.1301,9.0513 26.9211,9.0513 M26.9211,11.2503 C25.9181,11.2503 25.1011,10.4333 25.1011,9.4303 C25.1011,8.4273 25.9181,7.6113 26.9211,7.6113 C27.9241,7.6113 28.7401,8.4273 28.7401,9.4303 C28.7401,10.4333 27.9241,11.2503 26.9211,11.2503"/>
            <path id="Fill-9" d="M34.0046,22.919 L0.8396,22.919 C0.4416,22.919 0.1196,22.596 0.1196,22.199 C0.1196,21.801 0.4416,21.479 0.8396,21.479 L34.0046,21.479 C34.4016,21.479 34.7246,21.801 34.7246,22.199 C34.7246,22.596 34.4016,22.919 34.0046,22.919"/>
            <path id="Fill-10" d="M34.0046,26.8374 L0.8396,26.8374 C0.4416,26.8374 0.1196,26.5144 0.1196,26.1174 C0.1196,25.7194 0.4416,25.3974 0.8396,25.3974 L34.0046,25.3974 C34.4016,25.3974 34.7246,25.7194 34.7246,26.1174 C34.7246,26.5144 34.4016,26.8374 34.0046,26.8374"/>
            <path id="Fill-11" d="M34.0046,30.7554 L0.8396,30.7554 C0.4416,30.7554 0.1196,30.4324 0.1196,30.0354 C0.1196,29.6374 0.4416,29.3154 0.8396,29.3154 L34.0046,29.3154 C34.4016,29.3154 34.7246,29.6374 34.7246,30.0354 C34.7246,30.4324 34.4016,30.7554 34.0046,30.7554"/>
            <path id="Fill-1" d="M20.2440884,11.717826 C20.0100121,12.0051014 19.7407425,12.2293563 19.4428272,12.3832247 C18.8437229,12.6925982 18.1603183,12.6917798 17.5661246,12.3832247 C17.2682094,12.2293563 16.9989398,12.0059199 16.764045,11.717826 C16.6363671,11.5615023 16.525058,11.3888096 16.4268442,11.2054772 L19.0606118,11.2054772 C19.3855358,11.2054772 19.6490763,10.9411183 19.6490763,10.6153757 C19.6490763,10.2904516 19.3855358,10.0269112 19.0606118,10.0269112 L16.0372627,10.0269112 C16.0053432,9.82066216 15.9873373,9.61032087 15.9873373,9.39670579 C15.9873373,9.1912752 16.0053432,8.98993684 16.0356258,8.79187229 L19.4485564,8.79187229 C19.7742989,8.79187229 20.0386578,8.52833184 20.0386578,8.20258931 C20.0386578,7.87766522 19.7742989,7.61248788 19.4485564,7.61248788 L16.4153859,7.61248788 C16.5168736,7.42097091 16.6306379,7.23845688 16.764045,7.07476716 C16.9981213,6.78831015 17.2682094,6.56405524 17.5669431,6.41018691 C18.1627737,6.0999949 18.8453598,6.0999949 19.4428272,6.41018691 C19.7407425,6.56405524 20.0108306,6.78831015 20.2440884,7.07476716 C20.4503375,7.32603087 20.8202762,7.36531641 21.0739953,7.15988581 C21.325259,6.95363677 21.3629076,6.58287956 21.157477,6.32997895 C20.8210947,5.91748086 20.4266024,5.59255677 19.9854587,5.36339117 C19.0491535,4.87886961 17.9581615,4.87886961 17.0234932,5.36339117 C16.5823494,5.59255677 16.1878572,5.91748086 15.8506564,6.3307974 C15.5453751,6.70564685 15.3088435,7.1394246 15.132877,7.61248788 L13.9788645,7.61248788 C13.653122,7.61248788 13.3895815,7.87766522 13.3895815,8.20258931 C13.3895815,8.52833184 13.653122,8.79187229 13.9788645,8.79187229 L14.8570598,8.79187229 C14.8341433,8.99239219 14.8079529,9.19209364 14.8079529,9.39670579 C14.8079529,9.61032087 14.8341433,9.81820681 14.8595152,10.0269112 L13.5901014,10.0269112 C13.2651773,10.0269112 13,10.2904516 13,10.6153757 C13,10.9411183 13.2651773,11.2054772 13.5901014,11.2054772 L15.1443353,11.2054772 C15.3186648,11.6687191 15.5511042,12.0951308 15.8506564,12.4626142 C16.1878572,12.8759307 16.5823494,13.2016733 17.0226748,13.4300204 C17.4900089,13.6730996 17.9884441,13.7958669 18.5040667,13.7958669 C19.0188709,13.7958669 19.5164876,13.6730996 19.9854587,13.4300204 C20.4274209,13.2008548 20.8210947,12.8751123 21.157477,12.4626142 C21.3629076,12.2113505 21.325259,11.8389564 21.0739953,11.6335258 C20.8219131,11.4280952 20.4503375,11.4657438 20.2440884,11.717826"/>
        </g>
    </g>
</svg>
