<?xml version="1.0" encoding="UTF-8"?>
<svg width="35px" height="24px" viewBox="0 0 35 24" version="1.1" xmlns="http://www.w3.org/2000/svg" xmlns:xlink="http://www.w3.org/1999/xlink">
    <!-- Generator: Sketch 48.2 (47327) - http://www.bohemiancoding.com/sketch -->
    <title>iconsEU2/CreditCards/</title>
    <desc>Created with Sketch.</desc>
    <defs></defs>
    <g id="Symbols" stroke="none" stroke-width="1" fill="none" fill-rule="evenodd">
        <g id="iconsEU2/CreditCards/" fill="#56924B">
            <g id="Group" transform="translate(4.000000, 4.000000)">
                <path d="M22.868625,16.818075 C23.6161823,16.818075 24.235875,16.1985502 24.235875,15.450825 L24.235875,2.447325 C24.235875,1.69843479 23.6180178,1.080075 22.868625,1.080075 L2.446875,1.080075 C1.69631734,1.080075 1.079625,1.69660013 1.079625,2.447325 L1.079625,15.450825 C1.079625,16.2003858 1.69815184,16.818075 2.446875,16.818075 L22.868625,16.818075 Z M2.446875,17.898075 C1.10201171,17.898075 -0.000375,16.7971812 -0.000375,15.450825 L-0.000375,2.447325 C-0.000375,1.10006702 1.09991537,7.5e-05 2.446875,7.5e-05 L22.868625,7.5e-05 C24.214682,7.5e-05 25.315875,1.10216376 25.315875,2.447325 L25.315875,15.450825 C25.315875,16.7950832 24.2125844,17.898075 22.868625,17.898075 L2.446875,17.898075 Z" id="Stroke-1" fill-rule="nonzero"></path>
                <path d="M3.232425,14.97015 C2.93419124,14.97015 2.692425,14.7283838 2.692425,14.43015 C2.692425,14.1319162 2.93419124,13.89015 3.232425,13.89015 L4.14602045,13.89015 C4.44425422,13.89015 4.68602045,14.1319162 4.68602045,14.43015 C4.68602045,14.7283838 4.44425422,14.97015 4.14602045,14.97015 L3.232425,14.97015 Z" id="Stroke-3" fill-rule="nonzero"></path>
                <path d="M6.512925,14.97015 C6.21469124,14.97015 5.972925,14.7283838 5.972925,14.43015 C5.972925,14.1319162 6.21469124,13.89015 6.512925,13.89015 L15.3771418,13.89015 C15.6753756,13.89015 15.9171418,14.1319162 15.9171418,14.43015 C15.9171418,14.7283838 15.6753756,14.97015 15.3771418,14.97015 L6.512925,14.97015 Z" id="Stroke-5" fill-rule="nonzero"></path>
                <path d="M0.54,8.186475 C0.241766235,8.186475 0,7.94470876 0,7.646475 L0,4.541475 C0,4.24324124 0.241766235,4.001475 0.54,4.001475 L24.7755,4.001475 C25.0737338,4.001475 25.3155,4.24324124 25.3155,4.541475 L25.3155,7.646475 C25.3155,7.94470876 25.0737338,8.186475 24.7755,8.186475 L0.54,8.186475 Z M24.2355,7.106475 L24.2355,5.081475 L1.08,5.081475 L1.08,7.106475 L24.2355,7.106475 Z" id="Stroke-7" fill-rule="nonzero"></path>
                <polygon id="Fill-9" points="1.02975 7.646475 24.7755 7.646475 24.7755 4.906725 1.02975 4.906725"></polygon>
            </g>
            <path d="M10,1.5 C9.72385763,1.5 9.5,1.27614237 9.5,1 C9.5,0.723857625 9.72385763,0.5 10,0.5 L28,0.5 C29.4558162,0.5 30.5827521,0.875645301 31.3535534,1.64644661 C32.1243547,2.41724792 32.5,3.54418382 32.5,5 L32.5,17 C32.5,17.2761424 32.2761424,17.5 32,17.5 C31.7238576,17.5 31.5,17.2761424 31.5,17 L31.5,5 C31.5,3.78914951 31.2089786,2.91608542 30.6464466,2.35355339 C30.0839146,1.79102137 29.2108505,1.5 28,1.5 L10,1.5 Z" id="Path-2" fill-rule="nonzero"></path>
        </g>
    </g>
</svg>