<?xml version="1.0" encoding="UTF-8" standalone="no"?>
<svg xmlns:cc="http://creativecommons.org/ns#" xmlns:dc="http://purl.org/dc/elements/1.1/" xmlns:inkscape="http://www.inkscape.org/namespaces/inkscape" xmlns:rdf="http://www.w3.org/1999/02/22-rdf-syntax-ns#" xmlns:sodipodi="http://sodipodi.sourceforge.net/DTD/sodipodi-0.dtd" xmlns:svg="http://www.w3.org/2000/svg" id="svg12" width="512px" height="512px" class="" version="1.1" viewBox="0 0 496 496" inkscape:version="0.92.4 (5da689c313, 2019-01-14)" sodipodi:docname="ps-icon.svg">
   <defs id="defs16"/>
   <g id="g10">
      <script class="active-path"/>
      <path id="path8" fill="#56924B" d="m398.96875 390.039062-26.074219-5.214843-63.078125-98.128907c-5.921875-9.199218-15.984375-14.695312-26.921875-14.695312h-18.894531v-16h24v-8c0-22.054688-17.945312-40-40-40h-34.726562l-8.554688-19.953125c-8.832031-20.613281-21.175781-39.207031-36.71875-55.320313v-9.046874c9.792969-8.792969 16-21.503907 16-35.679688v-16c0-26.472656-21.527344-48-48-48s-48 21.527344-48 48v16c0 14.167969 6.207031 26.878906 16 35.679688v18.105468l-14.273438 23.789063-26.246093-64.421875c.273437-1.6875.519531-3.382813.519531-5.152344 0-17.648438-14.351562-32-32-32s-32 14.351562-32 32c0 12.214844 6.960938 22.726562 17.046875 28.121094l94.320313 227.933594-24.894532 62.234374c-5.816406-1.679687-11.648437-3.28125-17.433594-5.089843v-.007813c-2.542968-.792968-5.167968-1.191406-7.816406-1.191406h-3.046875c-14.433593 0-26.175781 11.742188-26.175781 26.175781 0 11.726563 7.886719 22.105469 19.175781 25.222657l17.664063 4.90625c75.6875 21.03125 153.902344 31.695312 232.464844 31.695312h74.695312c13.230469 0 24-10.769531 24-24s-10.769531-24-24-24h-52.671875c-19.832031 0-39.609375-.769531-59.328125-2.144531v-85.855469h31.222656l39.625 64.390625c2.929688 4.769531 8.023438 7.609375 13.625 7.609375h46.34375c11.679688 0 21.183594-9.503906 21.183594-21.183594 0-10.074218-7.167969-18.816406-17.03125-20.777344zm-128.335938-150.039062h-113.359374l-20.417969-47.648438c-.566407-1.320312-.855469-2.726562-.855469-4.175781v-1.582031c0-5.839844 4.753906-10.59375 10.601562-10.59375 4.566407 0 8.605469 2.910156 10.046876 7.246094l13.582031 40.753906h77.769531c10.433594 0 19.328125 6.6875 22.632812 16zm-129.800781 188.113281 24.777344-68.113281h50.390625v81.089844c-25.230469-3.203125-50.304688-7.523438-75.167969-12.976563zm-15.488281-84.113281-89.535156-216.382812c6.847656-.824219 13.015625-3.738282 17.832031-8.191407l84.984375 208.574219h77.375v16zm-21.34375-272c0-17.648438 14.351562-32 32-32s32 14.351562 32 32v16c0 17.648438-14.351562 32-32 32s-32-14.351562-32-32zm16 74.214844v-13.015625c5.015625 1.785156 10.382812 2.800781 16 2.800781s10.984375-1.023438 16-2.800781v6.113281l2.34375 2.34375c15.199219 15.199219 27.199219 32.929688 35.671875 52.6875l5.855469 13.65625h-14.101563l-9.9375-29.816406c-3.632812-10.871094-13.769531-18.183594-25.230469-18.183594-14.664062 0-26.601562 11.929688-26.601562 26.59375v1.582031c0 3.625.71875 7.160157 2.152344 10.480469l24.574218 57.34375h69.273438v56h-66.625l-52.101562-127.902344zm-88-66.214844c8.824219 0 16 7.175781 16 16s-7.175781 16-16 16-16-7.175781-16-16 7.175781-16 16-16zm93.414062 280h23.160157l-23.46875 64.542969c-7.746094-1.855469-15.480469-3.75-23.175781-5.824219zm250.585938 104c4.40625 0 8 3.585938 8 8s-3.59375 8-8 8h-74.695312c-77.113282 0-153.878907-10.472656-228.175782-31.113281l-17.664062-4.902344c-4.402344-1.207031-7.464844-5.25-7.464844-9.808594 0-5.609375 4.566406-10.175781 10.175781-10.175781h3.046875c1.023438 0 2.050782.160156 3.035156.464844 83.964844 26.230468 171.125 39.535156 259.070313 39.535156zm-144-20.984375v-187.015625h16v188.535156c-5.335938-.472656-10.671875-.941406-16-1.519531zm32-99.015625v-16h11.527344l9.847656 16zm130.816406 72h-46.34375l-64-104h-20.472656v-24h18.894531c5.464844 0 10.496094 2.753906 13.457031 7.351562l66.753907 103.832032 32.726562 6.542968c2.414063.480469 4.167969 2.617188 4.167969 5.089844 0 2.855469-2.328125 5.183594-5.183594 5.183594zm0 0" class="active-path" data-original="#000000"/>
      <g id="g3824" transform="translate(14.118166,10.402859)">
         <path id="Fill-1" d="m 385.67891,134.27275 c -2.76727,3.39624 -5.95068,6.04745 -9.47261,7.8665 -7.08267,3.65739 -15.162,3.64775 -22.1867,0 -3.52193,-1.81905 -6.70534,-4.4605 -9.48225,-7.8665 -1.50945,-1.84797 -2.82535,-3.88962 -3.98639,-6.05696 h 31.13675 c 3.8413,0 6.95685,-3.12532 6.95685,-6.97626 0,-3.84129 -3.11555,-6.95697 -6.95685,-6.95697 h -35.74248 c -0.37709,-2.43826 -0.59065,-4.92497 -0.59065,-7.45036 0,-2.42862 0.21234,-4.80892 0.57113,-7.150402 h 40.3482 c 3.85094,0 6.97625,-3.115676 6.97625,-6.966614 0,-3.841297 -3.12531,-6.976255 -6.97625,-6.976255 h -35.85866 c 1.19961,-2.264116 2.5448,-4.421818 4.12198,-6.357049 2.76727,-3.386473 5.96032,-6.037684 9.49189,-7.856738 7.04398,-3.667153 15.11367,-3.667153 22.17706,0 3.52193,1.819054 6.71498,4.470265 9.4726,7.856738 2.43826,2.970455 6.81176,3.43492 9.81125,1.006789 2.97046,-2.43826 3.41552,-6.821393 0.98727,-9.811251 -3.97676,-4.876643 -8.64045,-8.71794 -13.85574,-11.427117 -11.06919,-5.728081 -23.96707,-5.728081 -35.01686,0 -5.21516,2.709177 -9.87898,6.550474 -13.86537,11.436757 -3.60907,4.431581 -6.40538,9.559737 -8.48571,15.152359 h -13.64291 c -3.85093,0 -6.96661,3.134958 -6.96661,6.976255 0,3.850938 3.11568,6.966615 6.96661,6.966615 h 10.38213 c -0.27091,2.370533 -0.58088,4.731423 -0.58088,7.150403 0,2.52539 0.30997,4.98305 0.61017,7.45036 H 307.015 c -3.8413,0 -6.97626,3.11567 -6.97626,6.95697 0,3.85094 3.13496,6.97626 6.97626,6.97626 h 18.37445 c 2.06092,5.47644 4.80879,10.51759 8.35012,14.86203 3.98652,4.88629 8.65021,8.73722 13.85586,11.43676 5.52489,2.8738 11.41748,4.32517 17.51325,4.32517 6.08601,0 11.96895,-1.45137 17.51313,-4.32517 5.22493,-2.70918 9.8791,-6.56011 13.85585,-11.43676 2.42862,-2.97045 1.98356,-7.37299 -0.98726,-9.80161 -2.98022,-2.42862 -7.37299,-1.98355 -9.81137,0.99703" style="fill:#56924b;stroke-width:11.82214451" inkscape:connector-curvature="0"/>
         <path id="Fill-5" d="m 355.16612,12.773934 c -51.74554,0 -93.84422,42.11051 -93.84422,93.856056 0,51.75737 42.09868,93.86776 93.84422,93.86776 51.76921,0 93.86776,-42.11039 93.86776,-93.86776 0,-51.745546 -42.09855,-93.856056 -93.86776,-93.856056 m 0,204.747706 c -61.14419,0 -110.87994,-49.74758 -110.87994,-110.89165 0,-61.13236 49.73575,-110.8799437 110.87994,-110.8799437 61.15591,0 110.90349,49.7475837 110.90349,110.8799437 0,61.14407 -49.74758,110.89165 -110.90349,110.89165" style="fill:#56924b;stroke-width:11.82214451" inkscape:connector-curvature="0"/>
      </g>
   </g>
</svg>
