<?xml version="1.0" encoding="UTF-8"?>
<svg xmlns="http://www.w3.org/2000/svg" xmlns:xlink="http://www.w3.org/1999/xlink" width="35px" height="35px" version="1.1" viewBox="0 0 35 35">
<!--Generator: Sketch 48.2 (47327) - http://www.bohemiancoding.com/sketch-->
    <title>
        iconsEU2/SavingsAccount
    </title>
    <desc>
        Created with Sketch.
    </desc>
    <defs/>
    <g id="Symbols" fill="none" fill-rule="evenodd" stroke="none" stroke-width="1">
        <g id="iconsEU2/SavingsAccount">
            <g id="Page-1" transform="translate(1.000000, 10.000000)"/>
            <path id="Combined-Shape" fill="#56924B" fill-rule="nonzero" d="M30.0491474,19.4199423 C30.0674523,19.4310262 30.0854229,19.4430171 30.1030023,19.4559235 C31.5478509,20.5167062 32.5498228,20.0591657 33.1583656,18.9773119 C33.3533156,18.6307342 33.7923104,18.5078157 34.1388881,18.7027656 C34.4854658,18.8977156 34.6083843,19.3367104 34.4134344,19.6832881 C33.5965147,21.1355898 32.1382549,21.9804546 30.3522647,21.2480464 C30.3586526,21.3791222 30.3619,21.5113152 30.3619,21.6446 C30.3619,24.8110953 28.7424525,27.7448308 25.9908913,29.7994708 L26.7740563,33.7170893 C26.9449873,34.5761272 26.2783031,35.2936131 25.4069554,35.2875892 L21.5745897,35.2665924 C20.8103158,35.2630785 20.1059267,34.7098572 19.9505579,33.9779393 L19.6179805,32.4093757 C18.7607213,32.5322079 17.754677,32.6026 16.8719,32.6026 C15.9896238,32.6026 14.9831711,32.5321785 14.1258227,32.4093592 L13.7934942,33.9767454 C13.63973,34.7080625 12.9321507,35.2630684 12.1698457,35.2665892 L8.33721031,35.2875924 C7.46188691,35.2916169 6.78750684,34.569617 6.97296604,33.7063486 L7.71481214,30.2537476 C6.22671957,29.6176472 5.03825621,28.4391285 4.28465077,26.8736 L2.8819,26.8736 C1.679505,26.8736 1.0009,26.5781581 1.0009,25.3766 L1.0009,21.0336 C1.0009,19.8823386 1.74063787,19.0726 2.8499,19.0726 L3.74580397,19.0726 C4.12288233,17.7654334 4.78607757,16.53547 5.69696009,15.4352264 C5.59744654,14.6342798 5.35157509,13.9965601 4.88152699,13.1779622 C4.79907985,13.0343789 4.15722665,11.9747368 3.95584231,11.6141511 C3.88915353,11.4947425 3.82531788,11.377116 3.7635042,11.2594531 C3.52847639,10.8120756 3.8154107,10.268104 4.31735294,10.2094637 C7.28652247,9.86258523 9.66511554,10.3672502 11.3355653,11.5813731 C12.1222576,11.3055479 13.0085383,11.0849381 13.9388725,10.9303398 C14.3311384,10.865155 14.7019754,11.1303066 14.7671602,11.5225725 C14.832345,11.9148384 14.5671934,12.2856754 14.1749275,12.3508602 C13.1822872,12.5158122 12.25161,12.7611748 11.4722376,13.0661065 C11.2276719,13.1617936 10.9504066,13.1167321 10.7487298,12.9485214 C9.57868124,11.9726293 7.84737364,11.4612065 5.58800542,11.5519043 C5.82068208,11.9424905 6.07298667,12.3610963 6.13029748,12.4609042 C6.75391956,13.5469541 7.06914571,14.432147 7.16169617,15.6123091 C7.17686857,15.8057808 7.11329779,15.997185 6.98539318,16.1431368 C5.98884083,17.2803011 5.31244729,18.5754131 5.00780908,19.9485449 C4.93469754,20.2780892 4.64245702,20.5126 4.3049,20.5126 L2.8499,20.5126 C2.56644484,20.5126 2.4409,20.650025 2.4409,21.0336 L2.4409,25.3766 C2.4409,25.4555025 2.39059191,25.4336 2.8819,25.4336 L4.7519,25.4336 C5.0439547,25.4336 5.30707731,25.6100247 5.4179747,25.8802056 C6.08494656,27.5051587 7.26249244,28.641363 8.76323246,29.1069306 C9.11929204,29.2173892 9.33214848,29.5813704 9.25383396,29.9458514 L8.41557988,33.8471416 L12.1625744,33.8266077 C12.2579854,33.826167 12.3725653,33.7362936 12.3845579,33.6792607 L12.8605579,31.4342607 C12.9425385,31.0476086 13.3208855,30.7993312 13.7082231,30.8780091 C14.5718651,31.0534364 15.8235897,31.1626 16.8719,31.1626 C17.9208363,31.1626 19.1716677,31.0534907 20.0355769,30.8780091 C20.4229145,30.7993312 20.8012615,31.0476086 20.8832421,31.4342607 L21.3592064,33.6790925 C21.3716353,33.737643 21.4843424,33.8261622 21.5818446,33.8266108 L25.3315661,33.8471553 L24.4878695,29.6267415 C24.4315285,29.3449074 24.5481969,29.0565636 24.7846693,28.8932064 C27.3990291,27.0871835 28.9219,24.4596395 28.9219,21.6446 C28.9219,20.5288141 28.6436549,19.5020914 28.1790903,18.5880148 C28.0167523,18.2685989 27.8434332,17.9872812 27.6715867,17.7478189 C27.5725041,17.6097504 27.4996692,17.5202051 27.465847,17.4827842 C27.1992127,17.1877797 27.2222112,16.7324814 27.5172158,16.465847 C27.8122203,16.1992127 28.2675186,16.2222112 28.534153,16.5172158 C28.7793904,16.7885467 29.1236606,17.2682759 29.4628097,17.9355852 C29.7017298,18.4056839 29.9000836,18.9011559 30.0491474,19.4199423 Z"/>
            <path id="Fill-5" fill="#56924B" d="M22.6631,1.4406 C18.2861,1.4406 14.7251,5.0026 14.7251,9.3796 C14.7251,13.7576 18.2861,17.3196 22.6631,17.3196 C27.0421,17.3196 30.6031,13.7576 30.6031,9.3796 C30.6031,5.0026 27.0421,1.4406 22.6631,1.4406 M22.6631,18.7596 C17.4911,18.7596 13.2841,14.5516 13.2841,9.3796 C13.2841,4.2086 17.4911,0.0006 22.6631,0.0006 C27.8361,0.0006 32.0441,4.2086 32.0441,9.3796 C32.0441,14.5516 27.8361,18.7596 22.6631,18.7596"/>
            <path id="Fill-1" fill="#56924B" d="M25.2440884,11.717826 C25.0100121,12.0051014 24.7407425,12.2293563 24.4428272,12.3832247 C23.8437229,12.6925982 23.1603183,12.6917798 22.5661246,12.3832247 C22.2682094,12.2293563 21.9989398,12.0059199 21.764045,11.717826 C21.6363671,11.5615023 21.525058,11.3888096 21.4268442,11.2054772 L24.0606118,11.2054772 C24.3855358,11.2054772 24.6490763,10.9411183 24.6490763,10.6153757 C24.6490763,10.2904516 24.3855358,10.0269112 24.0606118,10.0269112 L21.0372627,10.0269112 C21.0053432,9.82066216 20.9873373,9.61032087 20.9873373,9.39670579 C20.9873373,9.1912752 21.0053432,8.98993684 21.0356258,8.79187229 L24.4485564,8.79187229 C24.7742989,8.79187229 25.0386578,8.52833184 25.0386578,8.20258931 C25.0386578,7.87766522 24.7742989,7.61248788 24.4485564,7.61248788 L21.4153859,7.61248788 C21.5168736,7.42097091 21.6306379,7.23845688 21.764045,7.07476716 C21.9981213,6.78831015 22.2682094,6.56405524 22.5669431,6.41018691 C23.1627737,6.0999949 23.8453598,6.0999949 24.4428272,6.41018691 C24.7407425,6.56405524 25.0108306,6.78831015 25.2440884,7.07476716 C25.4503375,7.32603087 25.8202762,7.36531641 26.0739953,7.15988581 C26.325259,6.95363677 26.3629076,6.58287956 26.157477,6.32997895 C25.8210947,5.91748086 25.4266024,5.59255677 24.9854587,5.36339117 C24.0491535,4.87886961 22.9581615,4.87886961 22.0234932,5.36339117 C21.5823494,5.59255677 21.1878572,5.91748086 20.8506564,6.3307974 C20.5453751,6.70564685 20.3088435,7.1394246 20.132877,7.61248788 L18.9788645,7.61248788 C18.653122,7.61248788 18.3895815,7.87766522 18.3895815,8.20258931 C18.3895815,8.52833184 18.653122,8.79187229 18.9788645,8.79187229 L19.8570598,8.79187229 C19.8341433,8.99239219 19.8079529,9.19209364 19.8079529,9.39670579 C19.8079529,9.61032087 19.8341433,9.81820681 19.8595152,10.0269112 L18.5901014,10.0269112 C18.2651773,10.0269112 18,10.2904516 18,10.6153757 C18,10.9411183 18.2651773,11.2054772 18.5901014,11.2054772 L20.1443353,11.2054772 C20.3186648,11.6687191 20.5511042,12.0951308 20.8506564,12.4626142 C21.1878572,12.8759307 21.5823494,13.2016733 22.0226748,13.4300204 C22.4900089,13.6730996 22.9884441,13.7958669 23.5040667,13.7958669 C24.0188709,13.7958669 24.5164876,13.6730996 24.9854587,13.4300204 C25.4274209,13.2008548 25.8210947,12.8751123 26.157477,12.4626142 C26.3629076,12.2113505 26.325259,11.8389564 26.0739953,11.6335258 C25.8219131,11.4280952 25.4503375,11.4657438 25.2440884,11.717826"/>
        </g>
    </g>
</svg>
